<?xml version="1.0" encoding="UTF-8" standalone="no"?>
<svg
   viewBox="0 0 332.59838 85.039401"
   width="332.59839"
   height="85.039398"
   version="1.1"
   id="svg358"
   sodipodi:docname="gpc-add-ons-psx-input-pinout.svg"
   inkscape:version="1.2.2 (b0a8486541, 2022-12-01)"
   xmlns:inkscape="http://www.inkscape.org/namespaces/inkscape"
   xmlns:sodipodi="http://sodipodi.sourceforge.net/DTD/sodipodi-0.dtd"
   xmlns="http://www.w3.org/2000/svg"
   xmlns:svg="http://www.w3.org/2000/svg">
  <sodipodi:namedview
     id="namedview360"
     pagecolor="#505050"
     bordercolor="#eeeeee"
     borderopacity="1"
     inkscape:showpageshadow="0"
     inkscape:pageopacity="0"
     inkscape:pagecheckerboard="0"
     inkscape:deskcolor="#505050"
     showgrid="false"
     inkscape:zoom="1.8678312"
     inkscape:cx="99.848424"
     inkscape:cy="146.42651"
     inkscape:window-width="2560"
     inkscape:window-height="1532"
     inkscape:window-x="0"
     inkscape:window-y="0"
     inkscape:window-maximized="1"
     inkscape:current-layer="g356" />
  <desc
     id="desc311">Connecteur.dxf - scale = 1.000000, origin = (0.000000, 0.000000), method = manual</desc>
  <defs
     id="defs326">
    <marker
       id="DistanceX"
       orient="auto"
       refX="0"
       refY="0"
       style="overflow:visible">
      <path
         d="M 3,-3 -3,3 M 0,-5 V 5"
         style="stroke:#000000;stroke-width:0.5"
         id="path313" />
    </marker>
    <pattern
       id="Hatch"
       patternUnits="userSpaceOnUse"
       width="8"
       height="8"
       x="0"
       y="0">
      <path
         d="M8 4 l-4,4"
         stroke="#000000"
         stroke-width="0.25"
         linecap="square"
         id="path316" />
      <path
         d="M6 2 l-4,4"
         stroke="#000000"
         stroke-width="0.25"
         linecap="square"
         id="path318" />
      <path
         d="M4 0 l-4,4"
         stroke="#000000"
         stroke-width="0.25"
         linecap="square"
         id="path320" />
    </pattern>
    <symbol
       id="*Model_Space" />
    <symbol
       id="*Paper_Space" />
    <symbol
       id="rp2040-zero-16" />
  </defs>
  <g
     inkscape:groupmode="layer"
     inkscape:label="0"
     id="g356"
     transform="translate(-204.38522,-714.54872)">
    <path
       d="m 499.18822,799.58812 a 37.795276,37.795276 0 0 0 37.7954,-37.7952 v -24.567 a 22.677166,22.677166 0 0 0 -22.6772,-22.6772 h -287.244 a 22.677166,22.677166 0 0 0 -22.6772,22.6772 v 24.567 a 37.795276,37.795276 0 0 0 37.7952,37.7952 z"
       style="fill:#000000;fill-opacity:1;stroke:none;stroke-width:2;stroke-linecap:round"
       id="path328" />
    <path
       d="m 219.50322,726.83212 h 302.3622 a 7.559056,7.559056 0 0 1 7.5592,7.5592 v 22.677 a 30.23622,30.23622 0 0 1 -30.2364,30.2364 h -257.0078 a 30.23622,30.23622 0 0 1 -30.2362,-30.2364 v -22.677 a 7.559056,7.559056 0 0 1 7.559,-7.5592 z"
       style="fill:#ffffff;fill-opacity:1;stroke:none;stroke-width:2;stroke-linecap:round"
       id="path330" />
    <path
       d="m 221.39302,734.39132 h 96.378 a 1.889764,1.889764 0 0 1 1.8898,1.8896 v 41.5748 a 1.889764,1.889764 0 0 1 -1.8898,1.8898 h -75.5906 a 22.677166,22.677166 0 0 1 -22.6772,-22.6772 v -20.7874 a 1.889764,1.889764 0 0 1 1.8898,-1.8896 z"
       style="fill:#000000;fill-opacity:1;stroke:none;stroke-width:2;stroke-linecap:round"
       id="path350" />
    <path
       d="m 416.03862,734.39132 a 1.889764,1.889764 0 0 1 1.8898,1.8896 v 41.5748 a 1.889764,1.889764 0 0 1 -1.8898,1.8898 h -90.7086 a 1.889764,1.889764 0 0 1 -1.8898,-1.8898 v -41.5748 a 1.889764,1.889764 0 0 1 1.8898,-1.8896 z"
       style="fill:#000000;fill-opacity:1;stroke:none;stroke-width:2;stroke-linecap:round"
       id="path352" />
    <path
       d="m 519.97562,734.39132 h -96.3778 a 1.889764,1.889764 0 0 0 -1.8898,1.8896 v 41.5748 a 1.889764,1.889764 0 0 0 1.8898,1.8898 h 75.5904 a 22.677166,22.677166 0 0 0 22.6772,-22.6772 v -20.7874 a 1.889764,1.889764 0 0 0 -1.8898,-1.8896 z"
       style="fill:#000000;fill-opacity:1;stroke:none;stroke-width:2;stroke-linecap:round"
       id="path354" />
    <path
       d="m 351.78682,757.06832 a 11.3386,11.3386 0 0 0 -22.6772,0 11.3386,11.3386 0 0 0 22.6772,0 z"
       style="fill:#ffffff;fill-opacity:1;stroke:none;stroke-width:2;stroke-linecap:round"
       id="path332" />
    <path
       d="m 382.02302,757.06832 a 11.3386,11.3386 0 0 0 -22.6772,0 11.3386,11.3386 0 0 0 22.6772,0 z"
       style="fill:#ffffff;fill-opacity:1;stroke:none;stroke-width:2;stroke-linecap:round"
       id="path334" />
    <path
       d="m 412.25922,757.06832 a 11.3386,11.3386 0 0 0 -22.6772,0 11.3386,11.3386 0 0 0 22.6772,0 z"
       style="fill:#ffffff;fill-opacity:1;stroke:none;stroke-width:2;stroke-linecap:round"
       id="path336" />
    <path
       d="m 450.05442,757.06832 a 11.3386,11.3386 0 0 0 -22.6772,0 11.3386,11.3386 0 0 0 22.6772,0 z"
       style="fill:#ffffff;fill-opacity:1;stroke:none;stroke-width:2;stroke-linecap:round"
       id="path338" />
    <path
       d="m 480.29062,757.06832 a 11.3386,11.3386 0 0 0 -22.6772,0 11.3386,11.3386 0 0 0 22.6772,0 z"
       style="fill:#ffffff;fill-opacity:1;stroke:none;stroke-width:2;stroke-linecap:round"
       id="path340" />
    <path
       d="m 510.52682,757.06832 a 11.338583,11.338583 0 0 0 -22.677,0 11.338583,11.338583 0 0 0 22.677,0 z"
       style="fill:#ffffff;fill-opacity:1;stroke:none;stroke-width:2;stroke-linecap:round"
       id="path342" />
    <path
       d="m 253.51902,757.06832 a 11.3386,11.3386 0 0 0 -22.6772,0 11.3386,11.3386 0 0 0 22.6772,0 z"
       style="fill:#ffffff;fill-opacity:1;stroke:none;stroke-width:2;stroke-linecap:round"
       id="path344" />
    <text
       xml:space="preserve"
       style="font-size:13.396px;line-height:1;font-family:Monospace;-inkscape-font-specification:'Monospace, Normal';text-align:center;text-anchor:middle;fill:#000000;fill-opacity:1;stroke:none;stroke-width:3.1397;stroke-linecap:square;stroke-linejoin:bevel;stroke-miterlimit:0;stroke-dasharray:none;stroke-opacity:1;paint-order:stroke fill markers"
       id="text14"
       x="269.94199"
       y="685.21552"
       transform="scale(0.8954162,1.1167991)"><tspan
         id="tspan14"
         style="font-style:normal;font-variant:normal;font-weight:400;font-stretch:normal;font-size:20.094px;font-family:Monospace;-inkscape-font-specification:'Monospace, Normal';font-variant-ligatures:normal;font-variant-caps:normal;font-variant-numeric:normal;font-variant-east-asian:normal;fill:#000000;fill-opacity:1;stroke-width:3.1397"
         x="269.94199"
         y="685.21552">1</tspan></text>
    <path
       d="m 283.75522,757.06832 a 11.3386,11.3386 0 0 0 -22.6772,0 11.3386,11.3386 0 0 0 22.6772,0 z"
       style="fill:#ffffff;fill-opacity:1;stroke:none;stroke-width:2;stroke-linecap:round"
       id="path346" />
    <path
       d="m 313.99142,757.06832 a 11.3386,11.3386 0 0 0 -22.6772,0 11.3386,11.3386 0 0 0 22.6772,0 z"
       style="fill:#ffffff;fill-opacity:1;stroke:none;stroke-width:2;stroke-linecap:round"
       id="path348" />
    <text
       xml:space="preserve"
       style="font-size:13.396px;line-height:1;font-family:Monospace;-inkscape-font-specification:'Monospace, Normal';text-align:center;text-anchor:middle;fill:#000000;fill-opacity:1;stroke:none;stroke-width:3.1397;stroke-linecap:square;stroke-linejoin:bevel;stroke-miterlimit:0;stroke-dasharray:none;stroke-opacity:1;paint-order:stroke fill markers"
       id="text14-3"
       x="304.34256"
       y="685.34808"
       transform="scale(0.8954162,1.1167991)"><tspan
         id="tspan14-6"
         style="font-style:normal;font-variant:normal;font-weight:400;font-stretch:normal;font-size:20.094px;font-family:Monospace;-inkscape-font-specification:'Monospace, Normal';font-variant-ligatures:normal;font-variant-caps:normal;font-variant-numeric:normal;font-variant-east-asian:normal;fill:#000000;fill-opacity:1;stroke-width:3.1397"
         x="304.34256"
         y="685.34808">2</tspan></text>
    <text
       xml:space="preserve"
       style="font-size:13.396px;line-height:1;font-family:Monospace;-inkscape-font-specification:'Monospace, Normal';text-align:center;text-anchor:middle;fill:#000000;fill-opacity:1;stroke:none;stroke-width:3.1397;stroke-linecap:square;stroke-linejoin:bevel;stroke-miterlimit:0;stroke-dasharray:none;stroke-opacity:1;paint-order:stroke fill markers"
       id="text14-7"
       x="338.08578"
       y="685.20575"
       transform="scale(0.8954162,1.1167991)"><tspan
         id="tspan14-5"
         style="font-style:normal;font-variant:normal;font-weight:400;font-stretch:normal;font-size:20.094px;font-family:Monospace;-inkscape-font-specification:'Monospace, Normal';font-variant-ligatures:normal;font-variant-caps:normal;font-variant-numeric:normal;font-variant-east-asian:normal;fill:#000000;fill-opacity:1;stroke-width:3.1397"
         x="338.08578"
         y="685.20575">3</tspan></text>
    <text
       xml:space="preserve"
       style="font-size:13.396px;line-height:1;font-family:Monospace;-inkscape-font-specification:'Monospace, Normal';text-align:center;text-anchor:middle;fill:#000000;fill-opacity:1;stroke:none;stroke-width:3.1397;stroke-linecap:square;stroke-linejoin:bevel;stroke-miterlimit:0;stroke-dasharray:none;stroke-opacity:1;paint-order:stroke fill markers"
       id="text14-35"
       x="380.19266"
       y="685.21552"
       transform="scale(0.8954162,1.1167991)"><tspan
         id="tspan14-62"
         style="font-style:normal;font-variant:normal;font-weight:400;font-stretch:normal;font-size:20.094px;font-family:Monospace;-inkscape-font-specification:'Monospace, Normal';font-variant-ligatures:normal;font-variant-caps:normal;font-variant-numeric:normal;font-variant-east-asian:normal;fill:#000000;fill-opacity:1;stroke-width:3.1397"
         x="380.19266"
         y="685.21552">4</tspan></text>
    <text
       xml:space="preserve"
       style="font-size:13.396px;line-height:1;font-family:Monospace;-inkscape-font-specification:'Monospace, Normal';text-align:center;text-anchor:middle;fill:#000000;fill-opacity:1;stroke:none;stroke-width:3.1397;stroke-linecap:square;stroke-linejoin:bevel;stroke-miterlimit:0;stroke-dasharray:none;stroke-opacity:1;paint-order:stroke fill markers"
       id="text14-9"
       x="414.08304"
       y="685.0733"
       transform="scale(0.8954162,1.1167991)"><tspan
         id="tspan14-1"
         style="font-style:normal;font-variant:normal;font-weight:400;font-stretch:normal;font-size:20.094px;font-family:Monospace;-inkscape-font-specification:'Monospace, Normal';font-variant-ligatures:normal;font-variant-caps:normal;font-variant-numeric:normal;font-variant-east-asian:normal;fill:#000000;fill-opacity:1;stroke-width:3.1397"
         x="414.08304"
         y="685.0733">5</tspan></text>
    <text
       xml:space="preserve"
       style="font-size:13.396px;line-height:1;font-family:Monospace;-inkscape-font-specification:'Monospace, Normal';text-align:center;text-anchor:middle;fill:#000000;fill-opacity:1;stroke:none;stroke-width:3.1397;stroke-linecap:square;stroke-linejoin:bevel;stroke-miterlimit:0;stroke-dasharray:none;stroke-opacity:1;paint-order:stroke fill markers"
       id="text14-2"
       x="447.74777"
       y="685.20575"
       transform="scale(0.8954162,1.1167991)"><tspan
         id="tspan14-7"
         style="font-style:normal;font-variant:normal;font-weight:400;font-stretch:normal;font-size:20.094px;font-family:Monospace;-inkscape-font-specification:'Monospace, Normal';font-variant-ligatures:normal;font-variant-caps:normal;font-variant-numeric:normal;font-variant-east-asian:normal;fill:#000000;fill-opacity:1;stroke-width:3.1397"
         x="447.74777"
         y="685.20575">6</tspan></text>
    <text
       xml:space="preserve"
       style="font-size:13.396px;line-height:1;font-family:Monospace;-inkscape-font-specification:'Monospace, Normal';text-align:center;text-anchor:middle;fill:#000000;fill-opacity:1;stroke:none;stroke-width:3.1397;stroke-linecap:square;stroke-linejoin:bevel;stroke-miterlimit:0;stroke-dasharray:none;stroke-opacity:1;paint-order:stroke fill markers"
       id="text14-0"
       x="490.03104"
       y="685.21552"
       transform="scale(0.8954162,1.1167991)"><tspan
         id="tspan14-9"
         style="font-style:normal;font-variant:normal;font-weight:400;font-stretch:normal;font-size:20.094px;font-family:Monospace;-inkscape-font-specification:'Monospace, Normal';font-variant-ligatures:normal;font-variant-caps:normal;font-variant-numeric:normal;font-variant-east-asian:normal;fill:#000000;fill-opacity:1;stroke-width:3.1397"
         x="490.03104"
         y="685.21552">7</tspan></text>
    <text
       xml:space="preserve"
       style="font-size:13.396px;line-height:1;font-family:Monospace;-inkscape-font-specification:'Monospace, Normal';text-align:center;text-anchor:middle;fill:#000000;fill-opacity:1;stroke:none;stroke-width:3.1397;stroke-linecap:square;stroke-linejoin:bevel;stroke-miterlimit:0;stroke-dasharray:none;stroke-opacity:1;paint-order:stroke fill markers"
       id="text14-36"
       x="523.72516"
       y="685.20575"
       transform="scale(0.8954162,1.1167991)"><tspan
         id="tspan14-0"
         style="font-style:normal;font-variant:normal;font-weight:400;font-stretch:normal;font-size:20.094px;font-family:Monospace;-inkscape-font-specification:'Monospace, Normal';font-variant-ligatures:normal;font-variant-caps:normal;font-variant-numeric:normal;font-variant-east-asian:normal;fill:#000000;fill-opacity:1;stroke-width:3.1397"
         x="523.72516"
         y="685.20575">8</tspan></text>
    <text
       xml:space="preserve"
       style="font-size:13.396px;line-height:1;font-family:Monospace;-inkscape-font-specification:'Monospace, Normal';text-align:center;text-anchor:middle;fill:#000000;fill-opacity:1;stroke:none;stroke-width:3.1397;stroke-linecap:square;stroke-linejoin:bevel;stroke-miterlimit:0;stroke-dasharray:none;stroke-opacity:1;paint-order:stroke fill markers"
       id="text14-6"
       x="557.55194"
       y="685.20575"
       transform="scale(0.8954162,1.1167991)"><tspan
         id="tspan14-2"
         style="font-style:normal;font-variant:normal;font-weight:400;font-stretch:normal;font-size:20.094px;font-family:Monospace;-inkscape-font-specification:'Monospace, Normal';font-variant-ligatures:normal;font-variant-caps:normal;font-variant-numeric:normal;font-variant-east-asian:normal;fill:#000000;fill-opacity:1;stroke-width:3.1397"
         x="557.55194"
         y="685.20575">9</tspan></text>
  </g>
</svg>
